<svg width="200" height="200" viewBox="0 0 200 200" fill="none" xmlns="http://www.w3.org/2000/svg">
<g clip-path="url(#clip0_1840_10365)">
<path d="M44.6101 114.039L44.5001 114.059C42.6001 114.399 41.3301 116.229 41.6801 118.129L44.1201 131.599C44.4701 133.499 46.2901 134.769 48.2001 134.419L57.9101 132.649C58.7001 132.509 59.4701 132.909 59.8201 133.629C60.8101 135.619 61.9301 137.529 63.1901 139.339C63.6501 139.999 63.6301 140.889 63.1101 141.509L56.7201 149.079C55.4701 150.559 55.6601 152.769 57.1401 154.019L67.6001 162.839C69.0801 164.089 71.3001 163.899 72.5401 162.419L79.0001 154.769C79.5101 154.149 80.3701 153.979 81.1001 154.309C83.2001 155.269 85.3901 156.069 87.6601 156.689C88.4401 156.909 88.9801 157.599 88.9801 158.399V168.409C88.9801 170.339 90.5601 171.919 92.4901 171.919H106.17C108.1 171.919 109.67 170.349 109.67 168.409V158.399C109.67 157.589 110.22 156.899 111 156.689C113.27 156.069 115.46 155.269 117.55 154.309C118.29 153.979 119.14 154.149 119.66 154.769L126.11 162.419C127.36 163.899 129.57 164.089 131.05 162.839L141.51 154.019C142.99 152.769 143.18 150.559 141.93 149.079L135.55 141.509C135.03 140.889 135.01 139.999 135.47 139.339C136.73 137.529 137.85 135.619 138.83 133.629C139.19 132.909 139.96 132.509 140.75 132.649L150.45 134.419C152.36 134.769 154.18 133.499 154.53 131.599L156.97 118.129C157.32 116.229 156.05 114.399 154.15 114.059L154.04 114.039M128.32 114.039C128.45 130.919 114.08 144.539 96.9601 143.169C82.9101 142.049 71.5401 130.669 70.4301 116.619C70.3601 115.749 70.3301 114.889 70.3501 114.039" stroke="white" stroke-width="5" stroke-linecap="round" stroke-linejoin="round"/>
<path d="M161.04 103H38.96" stroke="white" stroke-width="4" stroke-linecap="round" stroke-linejoin="round"/>
<path d="M56.8101 69.8205C56.8101 69.8205 111.9 71.4005 140.13 35.3105" stroke="white" stroke-width="5" stroke-linecap="round" stroke-linejoin="round"/>
<path d="M56.0703 101.859V88.1191H73.7503V101.859" stroke="white" stroke-width="5" stroke-linecap="round" stroke-linejoin="round"/>
<path d="M90.4902 101.86V78.2598H108.17V101.86" stroke="white" stroke-width="5" stroke-linecap="round" stroke-linejoin="round"/>
<path d="M124.91 101.86V67.6504H142.59V101.86" stroke="white" stroke-width="5" stroke-linecap="round" stroke-linejoin="round"/>
<path d="M140.13 46.6105V35.3105H128.83" stroke="white" stroke-width="5" stroke-linecap="round" stroke-linejoin="round"/>
</g>
<defs>
<clipPath id="clip0_1840_10365">
<rect width="199.71" height="199.71" fill="white"/>
</clipPath>
</defs>
</svg>
