<svg width="200" height="200" viewBox="0 0 200 200" fill="none" xmlns="http://www.w3.org/2000/svg">
<g clip-path="url(#clip0_1834_10296)">
<path d="M99.9998 88.2009C116.243 88.2009 129.41 75.0336 129.41 58.7909C129.41 42.5482 116.243 29.3809 99.9998 29.3809C83.7572 29.3809 70.5898 42.5482 70.5898 58.7909C70.5898 75.0336 83.7572 88.2009 99.9998 88.2009Z" stroke="white" stroke-width="5" stroke-miterlimit="10"/>
<path d="M78.9902 79.3595C84.3202 73.8995 91.7702 70.5195 100 70.5195C108.23 70.5195 115.68 73.8995 121.01 79.3595" stroke="white" stroke-width="4" stroke-miterlimit="10"/>
<path d="M119.29 151.549C124.65 144.549 133.1 140.039 142.61 140.039C152.12 140.039 160.58 144.549 165.93 151.549" stroke="white" stroke-width="4" stroke-miterlimit="10"/>
<path d="M142.61 140.13C149.138 140.13 154.43 134.838 154.43 128.31C154.43 121.782 149.138 116.49 142.61 116.49C136.082 116.49 130.79 121.782 130.79 128.31C130.79 134.838 136.082 140.13 142.61 140.13Z" stroke="white" stroke-width="4" stroke-miterlimit="10"/>
<path d="M142.61 159.849C158.853 159.849 172.02 146.682 172.02 130.439C172.02 114.197 158.853 101.029 142.61 101.029C126.368 101.029 113.2 114.197 113.2 130.439C113.2 146.682 126.368 159.849 142.61 159.849Z" stroke="white" stroke-width="5" stroke-miterlimit="10"/>
<path d="M57.39 159.849C73.6327 159.849 86.8 146.682 86.8 130.439C86.8 114.197 73.6327 101.029 57.39 101.029C41.1473 101.029 27.98 114.197 27.98 130.439C27.98 146.682 41.1473 159.849 57.39 159.849Z" stroke="white" stroke-width="5" stroke-miterlimit="10"/>
<path d="M49.0398 102.23C49.0298 101.97 49.0298 101.71 49.0298 101.44C49.0298 84.3203 57.5598 69.1903 70.6198 60.0703" stroke="white" stroke-width="4" stroke-miterlimit="10"/>
<path d="M80.7598 148.289C86.5398 150.609 92.8498 151.879 99.4498 151.879C106.05 151.879 112.97 150.489 118.97 147.949" stroke="white" stroke-width="4" stroke-miterlimit="10"/>
<path d="M129.34 60.8203C141.81 70.0003 149.9 84.7803 149.9 101.44C149.9 101.6 149.9 101.77 149.89 101.93" stroke="white" stroke-width="4" stroke-miterlimit="10"/>
<path d="M100 70.5296V58.0996" stroke="white" stroke-width="3.19" stroke-miterlimit="10"/>
<path d="M110.13 60.35C106.78 63.7 100.35 62.69 100.35 62.69C100.35 62.69 99.3399 56.26 102.69 52.91C106.04 49.56 113.53 49.5 113.53 49.5C113.53 49.5 113.47 57 110.12 60.34L110.13 60.35Z" stroke="white" stroke-width="3.19" stroke-miterlimit="10"/>
<path d="M98.2299 48.0609C101.33 51.6409 99.8599 57.9809 99.8599 57.9809C99.8599 57.9809 93.3699 58.5209 90.2699 54.9409C87.1699 51.3609 87.6499 43.8809 87.6499 43.8809C87.6499 43.8809 95.1199 44.4809 98.2199 48.0609H98.2299Z" stroke="white" stroke-width="3.19" stroke-miterlimit="10"/>
<path d="M57.3899 141.179C63.3214 141.179 68.1299 136.371 68.1299 130.439C68.1299 124.508 63.3214 119.699 57.3899 119.699C51.4584 119.699 46.6499 124.508 46.6499 130.439C46.6499 136.371 51.4584 141.179 57.3899 141.179Z" stroke="white" stroke-width="4.31" stroke-miterlimit="10"/>
<path d="M59.3998 113.471H55.3698C54.801 113.471 54.3398 113.932 54.3398 114.501V119.811C54.3398 120.38 54.801 120.841 55.3698 120.841H59.3998C59.9687 120.841 60.4298 120.38 60.4298 119.811V114.501C60.4298 113.932 59.9687 113.471 59.3998 113.471Z" fill="white"/>
<path d="M65.2683 116.265L61.8451 120.324C61.4784 120.759 61.5337 121.409 61.9686 121.775L65.0494 124.373C65.4842 124.74 66.1341 124.685 66.5008 124.25L69.9239 120.191C70.2906 119.756 70.2354 119.106 69.8005 118.739L66.7197 116.141C66.2848 115.774 65.635 115.83 65.2683 116.265Z" fill="white"/>
<path d="M72.4534 124.516L67.2288 125.464C66.6691 125.566 66.2977 126.102 66.3993 126.662L67.1192 130.627C67.2208 131.187 67.7569 131.558 68.3166 131.456L73.5412 130.508C74.1009 130.406 74.4723 129.87 74.3707 129.311L73.6508 125.345C73.5492 124.786 73.0131 124.414 72.4534 124.516Z" fill="white"/>
<path d="M66.6205 133.409L64.5836 136.887C64.2961 137.377 64.4609 138.008 64.9517 138.296L69.5336 140.98C70.0244 141.267 70.6554 141.103 70.9429 140.612L72.9798 137.134C73.2673 136.643 73.1025 136.012 72.6116 135.725L68.0298 133.041C67.539 132.754 66.908 132.918 66.6205 133.409Z" fill="white"/>
<path d="M62.5789 138.584L58.8022 139.99C58.2691 140.189 57.9978 140.782 58.1963 141.315L60.0489 146.291C60.2474 146.824 60.8405 147.096 61.3736 146.897L65.1503 145.491C65.6834 145.293 65.9547 144.7 65.7562 144.166L63.9036 139.19C63.7051 138.657 63.1121 138.386 62.5789 138.584Z" fill="white"/>
<path d="M50.8419 139.168L48.9892 144.144C48.7908 144.677 49.0621 145.27 49.5952 145.469L53.3719 146.875C53.905 147.073 54.4981 146.802 54.6966 146.269L56.5492 141.293C56.7477 140.759 56.4764 140.166 55.9433 139.968L52.1666 138.562C51.6335 138.363 51.0404 138.635 50.8419 139.168Z" fill="white"/>
<path d="M46.7323 133.055L42.1505 135.739C41.6596 136.027 41.4948 136.658 41.7823 137.149L43.8192 140.626C44.1067 141.117 44.7377 141.282 45.2285 140.994L49.8104 138.31C50.3012 138.023 50.466 137.392 50.1785 136.901L48.1416 133.423C47.8541 132.933 47.2231 132.768 46.7323 133.055Z" fill="white"/>
<path d="M41.1309 125.351L40.411 129.317C40.3094 129.876 40.6808 130.412 41.2405 130.514L46.4651 131.463C47.0248 131.564 47.5609 131.193 47.6625 130.633L48.3824 126.668C48.484 126.108 48.1126 125.572 47.5529 125.471L42.3283 124.522C41.7686 124.42 41.2325 124.792 41.1309 125.351Z" fill="white"/>
<path d="M48.0416 116.148L44.9607 118.746C44.5259 119.113 44.4706 119.763 44.8373 120.198L48.2605 124.257C48.6272 124.692 49.277 124.747 49.7119 124.38L52.7927 121.782C53.2276 121.416 53.2828 120.766 52.9161 120.331L49.493 116.272C49.1262 115.837 48.4764 115.781 48.0416 116.148Z" fill="white"/>
<path d="M59.3998 113.471H55.3698C54.801 113.471 54.3398 113.932 54.3398 114.501V119.811C54.3398 120.38 54.801 120.841 55.3698 120.841H59.3998C59.9687 120.841 60.4298 120.38 60.4298 119.811V114.501C60.4298 113.932 59.9687 113.471 59.3998 113.471Z" fill="white"/>
<path d="M92.1299 104.91L98.6199 112.3L110.44 100.48" stroke="white" stroke-width="4.73" stroke-linecap="round" stroke-linejoin="round"/>
</g>
<defs>
<clipPath id="clip0_1834_10296">
<rect width="199.71" height="199.71" fill="white"/>
</clipPath>
</defs>
</svg>
